<svg class="svg-icon" style="width: 1em;height: 1em;vertical-align: middle;fill:#ffffff;overflow: hidden;" viewBox="0 0 1024 1024" version="1.1" xmlns="http://www.w3.org/2000/svg"><path d="M938.667 565.476H85.333c-15.739 0-28.444-12.706-28.444-28.445s12.705-28.444 28.444-28.444h853.334c15.739 0 28.444 12.705 28.444 28.444s-12.705 28.445-28.444 28.445z"  /><path d="M938.287 565.096c-7.3 0-14.696-2.844-20.195-8.438L696.604 332.61c-10.998-11.188-10.903-29.203 0.19-40.201 11.188-10.999 29.203-10.904 40.202 0.19l221.487 224.047c10.998 11.188 10.904 29.203-0.19 40.201-5.594 5.5-12.8 8.25-20.006 8.25z"  /><path d="M714.24 787.342c-7.3 0-14.696-2.844-20.196-8.438-10.998-11.188-10.903-29.203 0.19-40.202l224.047-221.487c11.189-10.999 29.203-10.904 40.202 0.19 10.998 11.188 10.904 29.202-0.19 40.2L734.246 779.094c-5.594 5.5-12.8 8.25-20.006 8.25z"  /></svg>
